<svg xmlns="http://www.w3.org/2000/svg" viewBox="0 -0.5 700 700" shape-rendering="crispEdges"><path stroke="#e08600" d="M352 227h48m-48 1h48m-48 1h48m-48 1h48m-48 1h48m-48 1h48m-48 1h48m-48 1h48m-72 1h24m48 0h24m-96 1h24m48 0h24m-96 1h24m48 0h24m-96 1h24m48 0h24m-96 1h24m48 0h24m-96 1h24m48 0h24m-96 1h24m48 0h24m-96 1h24m48 0h24m-120 1h24m96 0h24m-144 1h24m96 0h24m-144 1h24m96 0h24m-144 1h24m96 0h24m-144 1h24m96 0h24m-144 1h24m96 0h24m-144 1h24m96 0h24m-144 1h24m96 0h24m-168 1h24m144 0h16m-184 1h24m144 0h16m-184 1h24m144 0h16m-184 1h24m144 0h16m-184 1h24m144 0h16m-184 1h24m144 0h16m-184 1h24m144 0h16m-184 1h24m144 0h16m-192 1h8m184 0h8m-200 1h8m184 0h8m-200 1h8m184 0h8m-200 1h8m184 0h8m-200 1h8m184 0h8m-200 1h8m184 0h8m-200 1h8m184 0h8m-200 1h8m184 0h8m-208 1h8m-8 1h8m-8 1h8m-8 1h8m-8 1h8m-8 1h8m-8 1h8m-8 1h8m-16 1h8m216 0h8m-232 1h8m216 0h8m-232 1h8m216 0h8m-232 1h8m216 0h8m-232 1h8m216 0h8m-232 1h8m216 0h8m-232 1h8m216 0h8m-232 1h8m216 0h8m-240 1h8m232 0h8m-248 1h8m232 0h8m-248 1h8m232 0h8m-248 1h8m232 0h8m-248 1h8m232 0h8m-248 1h8m232 0h8m-248 1h8m232 0h8m-248 1h8m232 0h8m-256 1h8m248 0h8m-264 1h8m248 0h8m-264 1h8m248 0h8m-264 1h8m248 0h8m-264 1h8m248 0h8m-264 1h8m248 0h8m-264 1h8m248 0h8m-264 1h8m248 0h8m-272 1h8m256 0h8m-272 1h8m256 0h8m-272 1h8m256 0h8m-272 1h8m256 0h8m-272 1h8m256 0h8m-272 1h8m256 0h8m-272 1h8m256 0h8m-272 1h8m256 0h8m-272 1h8m264 0h8m-280 1h8m264 0h8m-280 1h8m264 0h8m-280 1h8m264 0h8m-280 1h8m264 0h8m-280 1h8m264 0h8m-280 1h8m264 0h8m-280 1h8m264 0h8m-288 1h16m264 0h8m-288 1h16m264 0h8m-288 1h16m264 0h8m-288 1h16m264 0h8m-288 1h16m264 0h8m-288 1h16m264 0h8m-288 1h16m264 0h8m-288 1h16m264 0h8m-288 1h8m272 0h8m-288 1h8m272 0h8m-288 1h8m272 0h8m-288 1h8m272 0h8m-288 1h8m272 0h8m-288 1h8m272 0h8m-288 1h8m272 0h8m-288 1h8m272 0h8m-288 1h8m-8 1h8m-8 1h8m-8 1h8m-8 1h8m-8 1h8m-8 1h8m-8 1h8m-8 1h8m-8 1h8m-8 1h8m-8 1h8m-8 1h8m-8 1h8m-8 1h8m-8 1h8m-8 1h8m-8 1h8m-8 1h8m-8 1h8m-8 1h8m-8 1h8m-8 1h8m-8 1h8m-8 1h8m-8 1h8m-8 1h8m-8 1h8m-8 1h8m-8 1h8m-8 1h8m-8 1h8m-8 1h8m-8 1h8m-8 1h8m-8 1h8m-8 1h8m-8 1h8m-8 1h8m-8 1h8"/><path stroke="#f1a130" d="M352 235h8m-8 1h8m-8 1h8m-8 1h8m-8 1h8m-8 1h8m-8 1h8m-8 1h8m0 1h8m40 0h8m-56 1h8m40 0h8m-56 1h8m40 0h8m-56 1h8m40 0h8m-56 1h8m40 0h8m-56 1h8m40 0h8m-56 1h8m40 0h8m-56 1h8m40 0h8m-96 1h16m32 0h8m64 0h8m-128 1h16m32 0h8m64 0h8m-128 1h16m32 0h8m64 0h8m-128 1h16m32 0h8m64 0h8m-128 1h16m32 0h8m64 0h8m-128 1h16m32 0h8m64 0h8m-128 1h16m32 0h8m64 0h8m-128 1h16m32 0h8m64 0h8m-112 1h8m32 0h8m64 0h8m-120 1h8m32 0h8m64 0h8m-120 1h8m32 0h8m64 0h8m-120 1h8m32 0h8m64 0h8m-120 1h8m32 0h8m64 0h8m-120 1h8m32 0h8m64 0h8m-120 1h8m32 0h8m64 0h8m-120 1h8m32 0h8m64 0h8m-112 1h8m32 0h8m64 0h8m-120 1h8m32 0h8m64 0h8m-120 1h8m32 0h8m64 0h8m-120 1h8m32 0h8m64 0h8m-120 1h8m32 0h8m64 0h8m-120 1h8m32 0h8m64 0h8m-120 1h8m32 0h8m64 0h8m-120 1h8m32 0h8m64 0h8m-112 1h8m88 0h8m-104 1h8m88 0h8m-104 1h8m88 0h8m-104 1h8m88 0h8m-104 1h8m88 0h8m-104 1h8m88 0h8m-104 1h8m88 0h8m-104 1h8m88 0h8m-176 1h48m32 0h8m72 0h8m-168 1h48m32 0h8m72 0h8m-168 1h48m32 0h8m72 0h8m-168 1h48m32 0h8m72 0h8m-168 1h48m32 0h8m72 0h8m-168 1h48m32 0h8m72 0h8m-168 1h48m32 0h8m72 0h8m-168 1h48m32 0h8m72 0h8m-176 1h8m48 0h8m32 0h8m56 0h8m48 0h8m-224 1h8m48 0h8m32 0h8m56 0h8m48 0h8m-224 1h8m48 0h8m32 0h8m56 0h8m48 0h8m-224 1h8m48 0h8m32 0h8m56 0h8m48 0h8m-224 1h8m48 0h8m32 0h8m56 0h8m48 0h8m-224 1h8m48 0h8m32 0h8m56 0h8m48 0h8m-224 1h8m48 0h8m32 0h8m56 0h8m48 0h8m-224 1h8m48 0h8m32 0h8m56 0h8m48 0h8m-248 1h24m64 0h8m32 0h8m24 0h8m16 0h8m-192 1h24m64 0h8m32 0h8m24 0h8m16 0h8m-192 1h24m64 0h8m32 0h8m24 0h8m16 0h8m-192 1h24m64 0h8m32 0h8m24 0h8m16 0h8m-192 1h24m64 0h8m32 0h8m24 0h8m16 0h8m-192 1h24m64 0h8m32 0h8m24 0h8m16 0h8m-192 1h24m64 0h8m32 0h8m24 0h8m16 0h8m-192 1h24m64 0h8m32 0h8m24 0h8m16 0h8m-200 1h8m88 0h8m64 0h8m-176 1h8m88 0h8m64 0h8m-176 1h8m88 0h8m64 0h8m-176 1h8m88 0h8m64 0h8m-176 1h8m88 0h8m64 0h8m-176 1h8m88 0h8m64 0h8m-176 1h8m88 0h8m64 0h8m-176 1h8m88 0h8m64 0h8m-176 1h8m96 0h8m64 0h16m-192 1h8m96 0h8m64 0h16m-192 1h8m96 0h8m64 0h16m-192 1h8m96 0h8m64 0h16m-192 1h8m96 0h8m64 0h16m-192 1h8m96 0h8m64 0h16m-192 1h8m96 0h8m64 0h16m-192 1h8m96 0h8m64 0h16m-200 1h8m104 0h8m104 0h8m16 0h8m-256 1h8m104 0h8m104 0h8m16 0h8m-256 1h8m104 0h8m104 0h8m16 0h8m-256 1h8m104 0h8m104 0h8m16 0h8m-256 1h8m104 0h8m104 0h8m16 0h8m-256 1h8m104 0h8m104 0h8m16 0h8m-256 1h8m104 0h8m104 0h8m16 0h8m-256 1h8m104 0h8m104 0h8m16 0h8m-256 1h8m48 0h16m32 0h16m120 0h8m-248 1h8m48 0h16m32 0h16m120 0h8m-248 1h8m48 0h16m32 0h16m120 0h8m-248 1h8m48 0h16m32 0h16m120 0h8m-248 1h8m48 0h16m32 0h16m120 0h8m-248 1h8m48 0h16m32 0h16m120 0h8m-248 1h8m48 0h16m32 0h16m120 0h8m-248 1h8m48 0h16m32 0h16m120 0h8m-248 1h8m32 0h24m-64 1h8m32 0h24m-64 1h8m32 0h24m-64 1h8m32 0h24m-64 1h8m32 0h24m-64 1h8m32 0h24m-64 1h8m32 0h24m-64 1h8m32 0h24m-16 1h8m-8 1h8m-8 1h8m-8 1h8m-8 1h8m-8 1h8m-8 1h8m-8 1h8m-16 1h8m-8 1h8m-8 1h8m-8 1h8m-8 1h8m-8 1h8m-8 1h8m-8 1h8m-16 1h8m-8 1h8m-8 1h8m-8 1h8m-8 1h8m-8 1h8m-8 1h8m-8 1h8m-16 1h8m72 0h8m-88 1h8m72 0h8m-88 1h8m72 0h8m-88 1h8m72 0h8m-88 1h8m72 0h8m-88 1h8m72 0h8m-88 1h8m72 0h8m-88 1h8m72 0h8m-88 1h8m80 0h8m-96 1h8m80 0h8m-96 1h8m80 0h8m-96 1h8m80 0h8m-96 1h8m80 0h8m-96 1h8m80 0h8m-96 1h8m80 0h8m-96 1h8m80 0h8m-104 1h8m96 0h8m-112 1h8m96 0h8m-112 1h8m96 0h8m-112 1h8m96 0h8m-112 1h8m96 0h8m-112 1h8m96 0h8m-112 1h8m96 0h8m-112 1h8m96 0h8m-112 1h8m96 0h8m-112 1h8m96 0h8m-112 1h8m96 0h8m-112 1h8m96 0h8m-112 1h8m96 0h8m-112 1h8m96 0h8m-112 1h8m96 0h8m-112 1h8m96 0h8m-112 1h8m88 0h8m-104 1h8m88 0h8m-104 1h8m88 0h8m-104 1h8m88 0h8m-104 1h8m88 0h8m-104 1h8m88 0h8m-104 1h8m88 0h8m-104 1h8m88 0h8m-104 1h8m72 0h8m16 0h8m-112 1h8m72 0h8m16 0h8m-112 1h8m72 0h8m16 0h8m-112 1h8m72 0h8m16 0h8m-112 1h8m72 0h8m16 0h8m-112 1h8m72 0h8m16 0h8m-112 1h8m72 0h8m16 0h8m-112 1h8m72 0h8m16 0h8m0 1h8m-8 1h8m-8 1h8m-8 1h8m-8 1h8m-8 1h8m-8 1h8m-8 1h8m0 1h8m-8 1h8m-8 1h8m-8 1h8m-8 1h8m-8 1h8m-8 1h8m-8 1h8m-24 1h8m24 0h8m-40 1h8m24 0h8m-40 1h8m24 0h8m-40 1h8m24 0h8m-40 1h8m24 0h8m-40 1h8m24 0h8m-40 1h8m24 0h8m-40 1h8m24 0h8m-48 1h8m24 0h16m-48 1h8m24 0h16m-48 1h8m24 0h16m-48 1h8m24 0h16m-48 1h8m24 0h16m-48 1h8m24 0h16m-48 1h8m24 0h16m-48 1h8m24 0h16m-56 1h8m24 0h8m-40 1h8m24 0h8m-40 1h8m24 0h8m-40 1h8m24 0h8m-40 1h8m24 0h8m-40 1h8m24 0h8m-40 1h8m24 0h8m-40 1h8m24 0h8m-48 1h8m-8 1h8m-8 1h8m-8 1h8m-8 1h8m-8 1h8m-8 1h8m-8 1h8m24 1h8m-8 1h8m-8 1h8m-8 1h8m-8 1h8m-8 1h8m-8 1h8m-8 1h8"/><path stroke="#e38d15" d="M360 235h8m-8 1h8m-8 1h8m-8 1h8m-8 1h8m-8 1h8m-8 1h8m-8 1h8m0 1h8m40 0h8m-56 1h8m40 0h8m-56 1h8m40 0h8m-56 1h8m40 0h8m-56 1h8m40 0h8m-56 1h8m40 0h8m-56 1h8m40 0h8m-56 1h8m40 0h8m-120 1h16m56 0h8m-80 1h16m56 0h8m-80 1h16m56 0h8m-80 1h16m56 0h8m-80 1h16m56 0h8m-80 1h16m56 0h8m-80 1h16m56 0h8m-80 1h16m56 0h8m-64 1h16m48 0h8m64 0h8m-144 1h16m48 0h8m64 0h8m-144 1h16m48 0h8m64 0h8m-144 1h16m48 0h8m64 0h8m-144 1h16m48 0h8m64 0h8m-144 1h16m48 0h8m64 0h8m-144 1h16m48 0h8m64 0h8m-144 1h16m48 0h8m64 0h8m-136 1h16m48 0h16m56 0h8m-144 1h16m48 0h16m56 0h8m-144 1h16m48 0h16m56 0h8m-144 1h16m48 0h16m56 0h8m-144 1h16m48 0h16m56 0h8m-144 1h16m48 0h16m56 0h8m-144 1h16m48 0h16m56 0h8m-144 1h16m48 0h16m56 0h8m-192 1h48m16 0h8m104 0h8m-184 1h48m16 0h8m104 0h8m-184 1h48m16 0h8m104 0h8m-184 1h48m16 0h8m104 0h8m-184 1h48m16 0h8m104 0h8m-184 1h48m16 0h8m104 0h8m-184 1h48m16 0h8m104 0h8m-184 1h48m16 0h8m104 0h8m-192 1h8m48 0h8m8 0h16m88 0h8m-184 1h8m48 0h8m8 0h16m88 0h8m-184 1h8m48 0h8m8 0h16m88 0h8m-184 1h8m48 0h8m8 0h16m88 0h8m-184 1h8m48 0h8m8 0h16m88 0h8m-184 1h8m48 0h8m8 0h16m88 0h8m-184 1h8m48 0h8m8 0h16m88 0h8m-184 1h8m48 0h8m8 0h16m88 0h8m-200 1h16m64 0h8m16 0h8m72 0h8m-192 1h16m64 0h8m16 0h8m72 0h8m-192 1h16m64 0h8m16 0h8m72 0h8m-192 1h16m64 0h8m16 0h8m72 0h8m-192 1h16m64 0h8m16 0h8m72 0h8m-192 1h16m64 0h8m16 0h8m72 0h8m-192 1h16m64 0h8m16 0h8m72 0h8m-192 1h16m64 0h8m16 0h8m72 0h8m-104 1h8m16 0h8m64 0h8m40 0h8m-152 1h8m16 0h8m64 0h8m40 0h8m-152 1h8m16 0h8m64 0h8m40 0h8m-152 1h8m16 0h8m64 0h8m40 0h8m-152 1h8m16 0h8m64 0h8m40 0h8m-152 1h8m16 0h8m64 0h8m40 0h8m-152 1h8m16 0h8m64 0h8m40 0h8m-152 1h8m16 0h8m64 0h8m40 0h8m-152 1h8m24 0h8m96 0h8m-144 1h8m24 0h8m96 0h8m-144 1h8m24 0h8m96 0h8m-144 1h8m24 0h8m96 0h8m-144 1h8m24 0h8m96 0h8m-144 1h8m24 0h8m96 0h8m-144 1h8m24 0h8m96 0h8m-144 1h8m24 0h8m96 0h8m-136 1h8m112 0h8m-128 1h8m112 0h8m-128 1h8m112 0h8m-128 1h8m112 0h8m-128 1h8m112 0h8m-128 1h8m112 0h8m-128 1h8m112 0h8m-128 1h8m112 0h8m-128 1h8m72 0h8m24 0h8m-120 1h8m72 0h8m24 0h8m-120 1h8m72 0h8m24 0h8m-120 1h8m72 0h8m24 0h8m-120 1h8m72 0h8m24 0h8m-120 1h8m72 0h8m24 0h8m-120 1h8m72 0h8m24 0h8m-120 1h8m72 0h8m24 0h8m-168 1h8m40 0h8m96 0h8m-160 1h8m40 0h8m96 0h8m-160 1h8m40 0h8m96 0h8m-160 1h8m40 0h8m96 0h8m-160 1h8m40 0h8m96 0h8m-160 1h8m40 0h8m96 0h8m-160 1h8m40 0h8m96 0h8m-160 1h8m40 0h8m96 0h8m-152 1h8m24 0h16m-48 1h8m24 0h16m-48 1h8m24 0h16m-48 1h8m24 0h16m-48 1h8m24 0h16m-48 1h8m24 0h16m-48 1h8m24 0h16m-48 1h8m24 0h16m-40 1h8m-8 1h8m-8 1h8m-8 1h8m-8 1h8m-8 1h8m-8 1h8m-8 1h8m0 1h16m-16 1h16m-16 1h16m-16 1h16m-16 1h16m-16 1h16m-16 1h16m-16 1h16m-8 1h16m-16 1h16m-16 1h16m-16 1h16m-16 1h16m-16 1h16m-16 1h16m-16 1h16m-8 1h16m-16 1h16m-16 1h16m-16 1h16m-16 1h16m-16 1h16m-16 1h16m-16 1h16m-8 1h8m-8 1h8m-8 1h8m-8 1h8m-8 1h8m-8 1h8m-8 1h8m-8 1h8m0 1h8m-8 1h8m-8 1h8m-8 1h8m-8 1h8m-8 1h8m-8 1h8m-8 1h8m-128 1h8m112 0h16m-136 1h8m112 0h16m-136 1h8m112 0h16m-136 1h8m112 0h16m-136 1h8m112 0h16m-136 1h8m112 0h16m-136 1h8m112 0h16m-136 1h8m112 0h16m-136 1h8m104 0h8m-120 1h8m104 0h8m-120 1h8m104 0h8m-120 1h8m104 0h8m-120 1h8m104 0h8m-120 1h8m104 0h8m-120 1h8m104 0h8m-120 1h8m104 0h8m-120 1h8m112 0h8m-128 1h8m112 0h8m-128 1h8m112 0h8m-128 1h8m112 0h8m-128 1h8m112 0h8m-128 1h8m112 0h8m-128 1h8m112 0h8m-128 1h8m112 0h8m-48 1h8m40 0h8m-56 1h8m40 0h8m-56 1h8m40 0h8m-56 1h8m40 0h8m-56 1h8m40 0h8m-56 1h8m40 0h8m-56 1h8m40 0h8m-56 1h8m40 0h8m-64 1h8m56 0h8m-72 1h8m56 0h8m-72 1h8m56 0h8m-72 1h8m56 0h8m-72 1h8m56 0h8m-72 1h8m56 0h8m-72 1h8m56 0h8m-72 1h8m56 0h8m-80 1h8m48 0h8m8 0h8m8 0h8m-96 1h8m48 0h8m8 0h8m8 0h8m-96 1h8m48 0h8m8 0h8m8 0h8m-96 1h8m48 0h8m8 0h8m8 0h8m-96 1h8m48 0h8m8 0h8m8 0h8m-96 1h8m48 0h8m8 0h8m8 0h8m-96 1h8m48 0h8m8 0h8m8 0h8m-96 1h8m48 0h8m8 0h8m8 0h8m-104 1h8m48 0h8m8 0h8m16 0h8m-104 1h8m48 0h8m8 0h8m16 0h8m-104 1h8m48 0h8m8 0h8m16 0h8m-104 1h8m48 0h8m8 0h8m16 0h8m-104 1h8m48 0h8m8 0h8m16 0h8m-104 1h8m48 0h8m8 0h8m16 0h8m-104 1h8m48 0h8m8 0h8m16 0h8m-104 1h8m48 0h8m8 0h8m16 0h8m-96 1h8m32 0h8m40 0h8m-96 1h8m32 0h8m40 0h8m-96 1h8m32 0h8m40 0h8m-96 1h8m32 0h8m40 0h8m-96 1h8m32 0h8m40 0h8m-96 1h8m32 0h8m40 0h8m-96 1h8m32 0h8m40 0h8m-96 1h8m32 0h8m40 0h8m-88 1h16m8 0h8m16 0h8m-56 1h16m8 0h8m16 0h8m-56 1h16m8 0h8m16 0h8m-56 1h16m8 0h8m16 0h8m-56 1h16m8 0h8m16 0h8m-56 1h16m8 0h8m16 0h8m-56 1h16m8 0h8m16 0h8m-56 1h16m8 0h8m16 0h8m-16 1h8m-8 1h8m-8 1h8m-8 1h8m-8 1h8m-8 1h8m-8 1h8m-8 1h8"/><path stroke="#c47600" d="M368 235h8m-8 1h8m-8 1h8m-8 1h8m-8 1h8m-8 1h8m-8 1h8m-8 1h8m0 1h8m-8 1h8m-8 1h8m-8 1h8m-8 1h8m-8 1h8m-8 1h8m-8 1h8m0 1h8m-8 1h8m-8 1h8m-8 1h8m-8 1h8m-8 1h8m-8 1h8m-8 1h8m-80 1h8m72 0h8m-88 1h8m72 0h8m-88 1h8m72 0h8m-88 1h8m72 0h8m-88 1h8m72 0h8m-88 1h8m72 0h8m-88 1h8m72 0h8m-88 1h8m72 0h8m-120 1h48m144 0h8m-200 1h48m144 0h8m-200 1h48m144 0h8m-200 1h48m144 0h8m-200 1h48m144 0h8m-200 1h48m144 0h8m-200 1h48m144 0h8m-200 1h48m144 0h8m-216 1h16m48 0h16m120 0h16m-216 1h16m48 0h16m120 0h16m-216 1h16m48 0h16m120 0h16m-216 1h16m48 0h16m120 0h16m-216 1h16m48 0h16m120 0h16m-216 1h16m48 0h16m120 0h16m-216 1h16m48 0h16m120 0h16m-216 1h16m48 0h16m120 0h16m-224 1h16m64 0h8m112 0h16m-216 1h16m64 0h8m112 0h16m-216 1h16m64 0h8m112 0h16m-216 1h16m64 0h8m112 0h16m-216 1h16m64 0h8m112 0h16m-216 1h16m64 0h8m112 0h16m-216 1h16m64 0h8m112 0h16m-216 1h16m64 0h8m112 0h16m-224 1h8m88 0h8m48 0h8m40 0h16m-216 1h8m88 0h8m48 0h8m40 0h16m-216 1h8m88 0h8m48 0h8m40 0h16m-216 1h8m88 0h8m48 0h8m40 0h16m-216 1h8m88 0h8m48 0h8m40 0h16m-216 1h8m88 0h8m48 0h8m40 0h16m-216 1h8m88 0h8m48 0h8m40 0h16m-216 1h8m88 0h8m48 0h8m40 0h16m-224 1h8m104 0h8m88 0h8m-216 1h8m104 0h8m88 0h8m-216 1h8m104 0h8m88 0h8m-216 1h8m104 0h8m88 0h8m-216 1h8m104 0h8m88 0h8m-216 1h8m104 0h8m88 0h8m-216 1h8m104 0h8m88 0h8m-216 1h8m104 0h8m88 0h8m-104 1h8m24 0h8m96 0h16m-152 1h8m24 0h8m96 0h16m-152 1h8m24 0h8m96 0h16m-152 1h8m24 0h8m96 0h16m-152 1h8m24 0h8m96 0h16m-152 1h8m24 0h8m96 0h16m-152 1h8m24 0h8m96 0h16m-152 1h8m24 0h8m96 0h16m-144 1h8m8 0h8m48 0h8m40 0h16m-136 1h8m8 0h8m48 0h8m40 0h16m-136 1h8m8 0h8m48 0h8m40 0h16m-136 1h8m8 0h8m48 0h8m40 0h16m-136 1h8m8 0h8m48 0h8m40 0h16m-136 1h8m8 0h8m48 0h8m40 0h16m-136 1h8m8 0h8m48 0h8m40 0h16m-136 1h8m8 0h8m48 0h8m40 0h16m-136 1h8m56 0h8m40 0h8m-120 1h8m56 0h8m40 0h8m-120 1h8m56 0h8m40 0h8m-120 1h8m56 0h8m40 0h8m-120 1h8m56 0h8m40 0h8m-120 1h8m56 0h8m40 0h8m-120 1h8m56 0h8m40 0h8m-120 1h8m56 0h8m40 0h8m-120 1h8m96 0h8m-112 1h8m96 0h8m-112 1h8m96 0h8m-112 1h8m96 0h8m-112 1h8m96 0h8m-112 1h8m96 0h8m-112 1h8m96 0h8m-112 1h8m96 0h8m-112 1h8m96 0h8m-112 1h8m96 0h8m-112 1h8m96 0h8m-112 1h8m96 0h8m-112 1h8m96 0h8m-112 1h8m96 0h8m-112 1h8m96 0h8m-112 1h8m96 0h8m-200 1h8m-8 1h8m-8 1h8m-8 1h8m-8 1h8m-8 1h8m-8 1h8m-8 1h8m-16 1h8m-8 1h8m-8 1h8m-8 1h8m-8 1h8m-8 1h8m-8 1h8m-8 1h8m-16 1h8m-8 1h8m-8 1h8m-8 1h8m-8 1h8m-8 1h8m-8 1h8m-8 1h8m-16 1h8m-8 1h8m-8 1h8m-8 1h8m-8 1h8m-8 1h8m-8 1h8m-8 1h8m-8 1h8m-8 1h8m-8 1h8m-8 1h8m-8 1h8m-8 1h8m-8 1h8m-8 1h8m-16 1h8m-8 1h8m-8 1h8m-8 1h8m-8 1h8m-8 1h8m-8 1h8m-8 1h8m-16 9h8m120 0h16m-144 1h8m120 0h16m-144 1h8m120 0h16m-144 1h8m120 0h16m-144 1h8m120 0h16m-144 1h8m120 0h16m-144 1h8m120 0h16m-144 1h8m120 0h16m-64 1h16m40 0h16m-72 1h16m40 0h16m-72 1h16m40 0h16m-72 1h16m40 0h16m-72 1h16m40 0h16m-72 1h16m40 0h16m-72 1h16m40 0h16m-72 1h16m40 0h16m-80 1h16m56 0h8m-80 1h16m56 0h8m-80 1h16m56 0h8m-80 1h16m56 0h8m-80 1h16m56 0h8m-80 1h16m56 0h8m-80 1h16m56 0h8m-80 1h16m56 0h8m-88 1h16m72 0h8m-96 1h16m72 0h8m-96 1h16m72 0h8m-96 1h16m72 0h8m-96 1h16m72 0h8m-96 1h16m72 0h8m-96 1h16m72 0h8m-96 1h16m72 0h8m-104 1h16m64 0h8m-88 1h16m64 0h8m-88 1h16m64 0h8m-88 1h16m64 0h8m-88 1h16m64 0h8m-88 1h16m64 0h8m-88 1h16m64 0h8m-88 1h16m64 0h8m-16 1h8m-8 1h8m-8 1h8m-8 1h8m-8 1h8m-8 1h8m-8 1h8m-8 1h8m-16 1h16m-16 1h16m-16 1h16m-16 1h16m-16 1h16m-16 1h16m-16 1h16m-16 1h16m-24 1h16m-16 1h16m-16 1h16m-16 1h16m-16 1h16m-16 1h16m-16 1h16m-16 1h16m-32 1h24m-24 1h24m-24 1h24m-24 1h24m-24 1h24m-24 1h24m-24 1h24m-24 1h24"/><path stroke="#a36200" d="M376 235h24m-24 1h24m-24 1h24m-24 1h24m-24 1h24m-24 1h24m-24 1h24m-24 1h24m-16 1h24m-24 1h24m-24 1h24m-24 1h24m-24 1h24m-24 1h24m-24 1h24m-24 1h24m-16 1h16m-16 1h16m-16 1h16m-16 1h16m-16 1h16m-16 1h16m-16 1h16m-16 1h16m-128 1h16m104 0h8m-128 1h16m104 0h8m-128 1h16m104 0h8m-128 1h16m104 0h8m-128 1h16m104 0h8m-128 1h16m104 0h8m-128 1h16m104 0h8m-128 1h16m104 0h8m-136 1h8m-8 1h8m-8 1h8m-8 1h8m-8 1h8m-8 1h8m-8 1h8m-8 1h8m40 57h8m-8 1h8m-8 1h8m-8 1h8m-8 1h8m-8 1h8m-8 1h8m-8 1h8m0 1h16m-16 1h16m-16 1h16m-16 1h16m-16 1h16m-16 1h16m-16 1h16m-16 1h16m-88 1h16m72 0h8m-96 1h16m72 0h8m-96 1h16m72 0h8m-96 1h16m72 0h8m-96 1h16m72 0h8m-96 1h16m72 0h8m-96 1h16m72 0h8m-96 1h16m72 0h8m-104 1h16m88 0h8m-112 1h16m88 0h8m-112 1h16m88 0h8m-112 1h16m88 0h8m-112 1h16m88 0h8m-112 1h16m88 0h8m-112 1h16m88 0h8m-112 1h16m88 0h8m-120 1h16m-16 1h16m-16 1h16m-16 1h16m-16 1h16m-16 1h16m-16 1h16m-16 1h16m-24 1h16m112 0h8m-136 1h16m112 0h8m-136 1h16m112 0h8m-136 1h16m112 0h8m-136 1h16m112 0h8m-136 1h16m112 0h8m-136 1h16m112 0h8m-136 1h16m112 0h8m-136 1h16m112 0h8m-136 1h16m112 0h8m-136 1h16m112 0h8m-136 1h16m112 0h8m-136 1h16m112 0h8m-136 1h16m112 0h8m-136 1h16m112 0h8m-136 1h16m112 0h8m-136 1h8m-8 1h8m-8 1h8m-8 1h8m-8 1h8m-8 1h8m-8 1h8m-8 1h8m-8 1h8m-8 1h8m-8 1h8m-8 1h8m-8 1h8m-8 1h8m-8 1h8m-8 1h8"/><path stroke="#ffc573" d="M328 243h8m-8 1h8m-8 1h8m-8 1h8m-8 1h8m-8 1h8m-8 1h8m-8 1h8m8 1h8m56 0h8m-72 1h8m56 0h8m-72 1h8m56 0h8m-72 1h8m56 0h8m-72 1h8m56 0h8m-72 1h8m56 0h8m-72 1h8m56 0h8m-72 1h8m56 0h8m-64 1h8m48 0h8m-64 1h8m48 0h8m-64 1h8m48 0h8m-64 1h8m48 0h8m-64 1h8m48 0h8m-64 1h8m48 0h8m-64 1h8m48 0h8m-64 1h8m48 0h8m-56 1h8m40 0h8m-56 1h8m40 0h8m-56 1h8m40 0h8m-56 1h8m40 0h8m-56 1h8m40 0h8m-56 1h8m40 0h8m-56 1h8m40 0h8m-56 1h8m40 0h8m-48 1h8m32 0h8m-48 1h8m32 0h8m-48 1h8m32 0h8m-48 1h8m32 0h8m-48 1h8m32 0h8m-48 1h8m32 0h8m-48 1h8m32 0h8m-48 1h8m32 0h8m-32 1h8m24 0h8m-40 1h8m24 0h8m-40 1h8m24 0h8m-40 1h8m24 0h8m-40 1h8m24 0h8m-40 1h8m24 0h8m-40 1h8m24 0h8m-40 1h8m24 0h8m-96 105h8m-8 1h8m-8 1h8m-8 1h8m-8 1h8m-8 1h8m-8 1h8m-8 1h8m-48 25h8m-8 1h8m-8 1h8m-8 1h8m-8 1h8m-8 1h8m-8 1h8m-8 1h8m-16 1h8m-8 1h8m-8 1h8m-8 1h8m-8 1h8m-8 1h8m-8 1h8m-8 1h8m-16 1h8m-8 1h8m-8 1h8m-8 1h8m-8 1h8m-8 1h8m-8 1h8m-8 1h8"/><path stroke="#fece8c" d="M336 243h24m-24 1h24m-24 1h24m-24 1h24m-24 1h24m-24 1h24m-24 1h24m-24 1h24m-8 1h8m-8 1h8m-8 1h8m-8 1h8m-8 1h8m-8 1h8m-8 1h8m-8 1h8m0 1h8m48 0h8m-64 1h8m48 0h8m-64 1h8m48 0h8m-64 1h8m48 0h8m-64 1h8m48 0h8m-64 1h8m48 0h8m-64 1h8m48 0h8m-64 1h8m48 0h8m-56 1h8m40 0h16m-64 1h8m40 0h16m-64 1h8m40 0h16m-64 1h8m40 0h16m-64 1h8m40 0h16m-64 1h8m40 0h16m-64 1h8m40 0h16m-64 1h8m40 0h16m-56 1h16m24 0h16m-56 1h16m24 0h16m-56 1h16m24 0h16m-56 1h16m24 0h16m-56 1h16m24 0h16m-56 1h16m24 0h16m-56 1h16m24 0h16m-56 1h16m24 0h16m48 1h8m-8 1h8m-8 1h8m-8 1h8m-8 1h8m-8 1h8m-8 1h8m-8 1h8m-32 9h8m-8 1h8m-8 1h8m-8 1h8m-8 1h8m-8 1h8m-8 1h8m-8 1h8m-168 1h8m-8 1h8m-8 1h8m-8 1h8m-8 1h8m-8 1h8m-8 1h8m-8 1h8m-24 1h32m-32 1h32m-32 1h32m-32 1h32m-32 1h32m-32 1h32m-32 1h32m-32 1h32m-48 1h56m-56 1h56m-56 1h56m-56 1h56m-56 1h56m-56 1h56m-56 1h56m-56 1h56m-72 1h40m-40 1h40m-40 1h40m-40 1h40m-40 1h40m-40 1h40m-40 1h40m-40 1h40m-40 1h24m200 0h8m-232 1h24m200 0h8m-232 1h24m200 0h8m-232 1h24m200 0h8m-232 1h24m200 0h8m-232 1h24m200 0h8m-232 1h24m200 0h8m-232 1h24m200 0h8m-240 1h16m-16 1h16m-16 1h16m-16 1h16m-16 1h16m-16 1h16m-16 1h16m-16 1h16m-24 1h16m-16 1h16m-16 1h16m-16 1h16m-16 1h16m-16 1h16m-16 1h16m-16 1h16m-16 1h8m-8 1h8m-8 1h8m-8 1h8m-8 1h8m-8 1h8m-8 1h8m-8 1h8m88 17h16m-16 1h16m-16 1h16m-16 1h16m-16 1h16m-16 1h16m-16 1h16m-16 1h16m-24 1h8m-8 1h8m-8 1h8m-8 1h8m-8 1h8m-8 1h8m-8 1h8m-8 1h8m-24 1h24m-24 1h24m-24 1h24m-24 1h24m-24 1h24m-24 1h24m-24 1h24m-24 1h24m-40 1h24m-24 1h24m-24 1h24m-24 1h24m-24 1h24m-24 1h24m-24 1h24m-24 1h24m-40 1h32m-32 1h32m-32 1h32m-32 1h32m-32 1h32m-32 1h32m-32 1h32m-32 1h32m-40 1h24m-24 1h24m-24 1h24m-24 1h24m-24 1h24m-24 1h24m-24 1h24m-24 1h24m-24 1h16m-16 1h16m-16 1h16m-16 1h16m-16 1h16m-16 1h16m-16 1h16m-16 1h16"/><path stroke="#ffac37" d="M336 251h8m80 0h16m-104 1h8m80 0h16m-104 1h8m80 0h16m-104 1h8m80 0h16m-104 1h8m80 0h16m-104 1h8m80 0h16m-104 1h8m80 0h16m-104 1h8m80 0h16m-96 1h8m80 0h16m-104 1h8m80 0h16m-104 1h8m80 0h16m-104 1h8m80 0h16m-104 1h8m80 0h16m-104 1h8m80 0h16m-104 1h8m80 0h16m-104 1h8m80 0h16m-96 1h8m72 0h24m-104 1h8m72 0h24m-104 1h8m72 0h24m-104 1h8m72 0h24m-104 1h8m72 0h24m-104 1h8m72 0h24m-104 1h8m72 0h24m-104 1h8m72 0h24m-96 1h8m24 0h16m24 0h16m-88 1h8m24 0h16m24 0h16m-88 1h8m24 0h16m24 0h16m-88 1h8m24 0h16m24 0h16m-88 1h8m24 0h16m24 0h16m-88 1h8m24 0h16m24 0h16m-88 1h8m24 0h16m24 0h16m-88 1h8m24 0h16m24 0h16m-80 1h16m8 0h16m16 0h16m-72 1h16m8 0h16m16 0h16m-72 1h16m8 0h16m16 0h16m-72 1h16m8 0h16m16 0h16m-72 1h16m8 0h16m16 0h16m-72 1h16m8 0h16m16 0h16m-72 1h16m8 0h16m16 0h16m-72 1h16m8 0h16m16 0h16m-160 1h48m48 0h24m24 0h8m-152 1h48m48 0h24m24 0h8m-152 1h48m48 0h24m24 0h8m-152 1h48m48 0h24m24 0h8m-152 1h48m48 0h24m24 0h8m-152 1h48m48 0h24m24 0h8m-152 1h48m48 0h24m24 0h8m-152 1h48m48 0h24m24 0h8m-160 1h8m32 0h24m48 0h16m24 0h8m40 0h16m-216 1h8m32 0h24m48 0h16m24 0h8m40 0h16m-216 1h8m32 0h24m48 0h16m24 0h8m40 0h16m-216 1h8m32 0h24m48 0h16m24 0h8m40 0h16m-216 1h8m32 0h24m48 0h16m24 0h8m40 0h16m-216 1h8m32 0h24m48 0h16m24 0h8m40 0h16m-216 1h8m32 0h24m48 0h16m24 0h8m40 0h16m-216 1h8m32 0h24m48 0h16m24 0h8m40 0h16m-240 1h24m48 0h16m80 0h32m16 0h16m-232 1h24m48 0h16m80 0h32m16 0h16m-232 1h24m48 0h16m80 0h32m16 0h16m-232 1h24m48 0h16m80 0h32m16 0h16m-232 1h24m48 0h16m80 0h32m16 0h16m-232 1h24m48 0h16m80 0h32m16 0h16m-232 1h24m48 0h16m80 0h32m16 0h16m-232 1h24m48 0h16m80 0h32m16 0h16m-232 1h8m72 0h16m96 0h32m24 0h8m-256 1h8m72 0h16m96 0h32m24 0h8m-256 1h8m72 0h16m96 0h32m24 0h8m-256 1h8m72 0h16m96 0h32m24 0h8m-256 1h8m72 0h16m96 0h32m24 0h8m-256 1h8m72 0h16m96 0h32m24 0h8m-256 1h8m72 0h16m96 0h32m24 0h8m-256 1h8m72 0h16m96 0h32m24 0h8m-264 1h8m88 0h8m104 0h8m40 0h8m-264 1h8m88 0h8m104 0h8m40 0h8m-264 1h8m88 0h8m104 0h8m40 0h8m-264 1h8m88 0h8m104 0h8m40 0h8m-264 1h8m88 0h8m104 0h8m40 0h8m-264 1h8m88 0h8m104 0h8m40 0h8m-264 1h8m88 0h8m104 0h8m40 0h8m-264 1h8m88 0h8m104 0h8m40 0h8m-8 1h8m-8 1h8m-8 1h8m-8 1h8m-8 1h8m-8 1h8m-8 1h8m-8 1h8m-208 1h16m-16 1h16m-16 1h16m-16 1h16m-16 1h16m-16 1h16m-16 1h16m-16 1h16m-24 1h32m-32 1h32m-32 1h32m-32 1h32m-32 1h32m-32 1h32m-32 1h32m-32 1h32m-40 1h48m-48 1h48m-48 1h48m-48 1h48m-48 1h48m-48 1h48m-48 1h48m-48 1h48m-56 1h64m-64 1h64m-64 1h64m-64 1h64m-64 1h64m-64 1h64m-64 1h64m-64 1h64m-72 1h72m-72 1h72m-72 1h72m-72 1h72m-72 1h72m-72 1h72m-72 1h72m-72 1h72m-72 1h80m-80 1h80m-80 1h80m-80 1h80m-80 1h80m-80 1h80m-80 1h80m-80 1h80m-88 1h48m40 0h8m-96 1h48m40 0h8m-96 1h48m40 0h8m-96 1h48m40 0h8m-96 1h48m40 0h8m-96 1h48m40 0h8m-96 1h48m40 0h8m-96 1h48m40 0h8m-96 1h40m40 0h16m-96 1h40m40 0h16m-96 1h40m40 0h16m-96 1h40m40 0h16m-96 1h40m40 0h16m-96 1h40m40 0h16m-96 1h40m40 0h16m-96 1h40m40 0h16m-96 1h32m48 0h8m-88 1h32m48 0h8m-88 1h32m48 0h8m-88 1h32m48 0h8m-88 1h32m48 0h8m-88 1h32m48 0h8m-88 1h32m48 0h8m-88 1h32m48 0h8m-88 1h24m56 0h16m-96 1h24m56 0h16m-96 1h24m56 0h16m-96 1h24m56 0h16m-96 1h24m56 0h16m-96 1h24m56 0h16m-96 1h24m56 0h16m-96 1h24m56 0h16m-96 1h8m72 0h24m-104 1h8m72 0h24m-104 1h8m72 0h24m-104 1h8m72 0h24m-104 1h8m72 0h24m-104 1h8m72 0h24m-104 1h8m72 0h24m-104 1h8m72 0h24m-32 1h40m-40 1h40m-40 1h40m-40 1h40m-40 1h40m-40 1h40m-40 1h40m-40 1h40m-48 1h32m-32 1h32m-32 1h32m-32 1h32m-32 1h32m-32 1h32m-32 1h32m-32 1h32m-40 1h32m-32 1h32m-32 1h32m-32 1h32m-32 1h32m-32 1h32m-32 1h32m-32 1h32m-32 1h24m40 0h8m-72 1h24m40 0h8m-72 1h24m40 0h8m-72 1h24m40 0h8m-72 1h24m40 0h8m-72 1h24m40 0h8m-72 1h24m40 0h8m-72 1h24m40 0h8m-16 1h24m-24 1h24m-24 1h24m-24 1h24m-24 1h24m-24 1h24m-24 1h24m-24 1h24m-24 1h16m-16 1h16m-16 1h16m-16 1h16m-16 1h16m-16 1h16m-16 1h16m-16 1h16"/><path stroke="#fff7ec" d="M360 251h8m48 0h8m-64 1h8m48 0h8m-64 1h8m48 0h8m-64 1h8m48 0h8m-64 1h8m48 0h8m-64 1h8m48 0h8m-64 1h8m48 0h8m-64 1h8m48 0h8m-56 1h8m48 0h8m-64 1h8m48 0h8m-64 1h8m48 0h8m-64 1h8m48 0h8m-64 1h8m48 0h8m-64 1h8m48 0h8m-64 1h8m48 0h8m-64 1h8m48 0h8m-56 1h8m-8 1h8m-8 1h8m-8 1h8m-8 1h8m-8 1h8m-8 1h8m-8 1h8m88 9h8m-8 1h8m-8 1h8m-8 1h8m-8 1h8m-8 1h8m-8 1h8m-8 1h8m-16 1h8m-8 1h8m-8 1h8m-8 1h8m-8 1h8m-8 1h8m-8 1h8m-8 1h8m-192 9h16m-16 1h16m-16 1h16m-16 1h16m-16 1h16m-16 1h16m-16 1h16m-16 1h16m-32 1h16m32 0h8m-56 1h16m32 0h8m-56 1h16m32 0h8m-56 1h16m32 0h8m-56 1h16m32 0h8m-56 1h16m32 0h8m-56 1h16m32 0h8m-56 1h16m32 0h8m-64 1h8m-8 1h8m-8 1h8m-8 1h8m-8 1h8m-8 1h8m-8 1h8m-8 1h8m56 57h8m-8 1h8m-8 1h8m-8 1h8m-8 1h8m-8 1h8m-8 1h8m-8 1h8m-24 1h16m-16 1h16m-16 1h16m-16 1h16m-16 1h16m-16 1h16m-16 1h16m-16 1h16m-24 1h8m-8 1h8m-8 1h8m-8 1h8m-8 1h8m-8 1h8m-8 1h8m-8 1h8"/><path stroke="#9e5a00" d="M296 259h16m-16 1h16m-16 1h16m-16 1h16m-16 1h16m-16 1h16m-16 1h16m-16 1h16m40 25h8m-8 1h8m-8 1h8m-8 1h8m-8 1h8m-8 1h8m-8 1h8m-8 1h8m0 1h8m32 0h8m-48 1h8m32 0h8m-48 1h8m32 0h8m-48 1h8m32 0h8m-48 1h8m32 0h8m-48 1h8m32 0h8m-48 1h8m32 0h8m-48 1h8m32 0h8m-48 1h16m16 0h16m-48 1h16m16 0h16m-48 1h16m16 0h16m-48 1h16m16 0h16m-48 1h16m16 0h16m-48 1h16m16 0h16m-48 1h16m16 0h16m-48 1h16m16 0h16m-40 1h8m8 0h8m16 0h8m-48 1h8m8 0h8m16 0h8m-48 1h8m8 0h8m16 0h8m-48 1h8m8 0h8m16 0h8m-48 1h8m8 0h8m16 0h8m-48 1h8m8 0h8m16 0h8m-48 1h8m8 0h8m16 0h8m-48 1h8m8 0h8m16 0h8m-48 1h16m32 0h8m-56 1h16m32 0h8m-56 1h16m32 0h8m-56 1h16m32 0h8m-56 1h16m32 0h8m-56 1h16m32 0h8m-56 1h16m32 0h8m-56 1h16m32 0h8m-56 1h8m-8 1h8m-8 1h8m-8 1h8m-8 1h8m-8 1h8m-8 1h8m-8 1h8m-16 9h8m-8 1h8m-8 1h8m-8 1h8m-8 1h8m-8 1h8m-8 1h8m-8 1h8m-8 1h8m-8 1h8m-8 1h8m-8 1h8m-8 1h8m-8 1h8m-8 1h8m-8 1h8m-8 1h8m-8 1h8m-8 1h8m-8 1h8m-8 1h8m-8 1h8m-8 1h8m-8 1h8m-80 73h8m-8 1h8m-8 1h8m-8 1h8m-8 1h8m-8 1h8m-8 1h8m-8 1h8m-8 1h8m-8 1h8m-8 1h8m-8 1h8m-8 1h8m-8 1h8m-8 1h8m-8 1h8m0 1h8m-8 1h8m-8 1h8m-8 1h8m-8 1h8m-8 1h8m-8 1h8m-8 1h8"/><path stroke="#feb856" d="M408 283h8m-8 1h8m-8 1h8m-8 1h8m-8 1h8m-8 1h8m-8 1h8m-8 1h8m-8 1h16m48 0h16m-80 1h16m48 0h16m-80 1h16m48 0h16m-80 1h16m48 0h16m-80 1h16m48 0h16m-80 1h16m48 0h16m-80 1h16m48 0h16m-80 1h16m48 0h16m-208 1h32m104 0h8m40 0h8m-192 1h32m104 0h8m40 0h8m-192 1h32m104 0h8m40 0h8m-192 1h32m104 0h8m40 0h8m-192 1h32m104 0h8m40 0h8m-192 1h32m104 0h8m40 0h8m-192 1h32m104 0h8m40 0h8m-192 1h32m104 0h8m40 0h8m-200 1h8m24 0h16m128 0h16m-192 1h8m24 0h16m128 0h16m-192 1h8m24 0h16m128 0h16m-192 1h8m24 0h16m128 0h16m-192 1h8m24 0h16m128 0h16m-192 1h8m24 0h16m128 0h16m-192 1h8m24 0h16m128 0h16m-192 1h8m24 0h16m128 0h16m-208 1h8m56 0h8m-72 1h8m56 0h8m-72 1h8m56 0h8m-72 1h8m56 0h8m-72 1h8m56 0h8m-72 1h8m56 0h8m-72 1h8m56 0h8m-72 1h8m56 0h8m-80 1h8m64 0h16m104 0h8m40 0h8m-248 1h8m64 0h16m104 0h8m40 0h8m-248 1h8m64 0h16m104 0h8m40 0h8m-248 1h8m64 0h16m104 0h8m40 0h8m-248 1h8m64 0h16m104 0h8m40 0h8m-248 1h8m64 0h16m104 0h8m40 0h8m-248 1h8m64 0h16m104 0h8m40 0h8m-248 1h8m64 0h16m104 0h8m40 0h8m-256 1h8m80 0h8m104 0h16m24 0h16m-256 1h8m80 0h8m104 0h16m24 0h16m-256 1h8m80 0h8m104 0h16m24 0h16m-256 1h8m80 0h8m104 0h16m24 0h16m-256 1h8m80 0h8m104 0h16m24 0h16m-256 1h8m80 0h8m104 0h16m24 0h16m-256 1h8m80 0h8m104 0h16m24 0h16m-256 1h8m80 0h8m104 0h16m24 0h16m-256 1h8m232 0h8m-248 1h8m232 0h8m-248 1h8m232 0h8m-248 1h8m232 0h8m-248 1h8m232 0h8m-248 1h8m232 0h8m-248 1h8m232 0h8m-248 1h8m232 0h8m-256 1h8m-8 1h8m-8 1h8m-8 1h8m-8 1h8m-8 1h8m-8 1h8m-8 1h8m64 33h16m-16 1h16m-16 1h16m-16 1h16m-16 1h16m-16 1h16m-16 1h16m-16 1h16m-24 1h8m-8 1h8m-8 1h8m-8 1h8m-8 1h8m-8 1h8m-8 1h8m-8 1h8m-16 1h8m32 0h8m-48 1h8m32 0h8m-48 1h8m32 0h8m-48 1h8m32 0h8m-48 1h8m32 0h8m-48 1h8m32 0h8m-48 1h8m32 0h8m-48 1h8m32 0h8m-56 1h8m-8 1h8m-8 1h8m-8 1h8m-8 1h8m-8 1h8m-8 1h8m-8 1h8m-40 1h8m8 0h8m56 0h8m-88 1h8m8 0h8m56 0h8m-88 1h8m8 0h8m56 0h8m-88 1h8m8 0h8m56 0h8m-88 1h8m8 0h8m56 0h8m-88 1h8m8 0h8m56 0h8m-88 1h8m8 0h8m56 0h8m-88 1h8m8 0h8m56 0h8m-80 1h8m56 0h8m-72 1h8m56 0h8m-72 1h8m56 0h8m-72 1h8m56 0h8m-72 1h8m56 0h8m-72 1h8m56 0h8m-72 1h8m56 0h8m-72 1h8m56 0h8m-16 1h8m-8 1h8m-8 1h8m-8 1h8m-8 1h8m-8 1h8m-8 1h8m-8 1h8m-16 1h8m-8 1h8m-8 1h8m-8 1h8m-8 1h8m-8 1h8m-8 1h8m-8 1h8m72 1h8m-8 1h8m-8 1h8m-8 1h8m-8 1h8m-8 1h8m-8 1h8m-8 1h8"/><path stroke="#8a4f01" d="M392 315h16m-16 1h16m-16 1h16m-16 1h16m-16 1h16m-16 1h16m-16 1h16m-16 1h16m-24 1h16m-16 1h16m-16 1h16m-16 1h16m-16 1h16m-16 1h16m-16 1h16m-16 1h16m-24 1h16m-16 1h16m-16 1h16m-16 1h16m-16 1h16m-16 1h16m-16 1h16m-16 1h16m-24 1h16m-16 1h16m-16 1h16m-16 1h16m-16 1h16m-16 1h16m-16 1h16m-16 1h16m-16 1h8m-8 1h8m-8 1h8m-8 1h8m-8 1h8m-8 1h8m-8 1h8m-8 1h8m-96 89h8m-8 1h8m-8 1h8m-8 1h8m-8 1h8m-8 1h8m-8 1h8m-8 1h8m-8 1h8m-8 1h8m-8 1h8m-8 1h8m-8 1h8m-8 1h8m-8 1h8m-8 1h8m0 1h8m-8 1h8m-8 1h8m-8 1h8m-8 1h8m-8 1h8m-8 1h8m-8 1h8"/><path stroke="#673e00" d="M400 323h16m-16 1h16m-16 1h16m-16 1h16m-16 1h16m-16 1h16m-16 1h16m-16 1h16m-24 1h8m16 0h24m64 0h8m-120 1h8m16 0h24m64 0h8m-120 1h8m16 0h24m64 0h8m-120 1h8m16 0h24m64 0h8m-120 1h8m16 0h24m64 0h8m-120 1h8m16 0h24m64 0h8m-120 1h8m16 0h24m64 0h8m-120 1h8m16 0h24m64 0h8m-128 1h8m48 0h24m24 0h16m-120 1h8m48 0h24m24 0h16m-120 1h8m48 0h24m24 0h16m-120 1h8m48 0h24m24 0h16m-120 1h8m48 0h24m24 0h16m-120 1h8m48 0h24m24 0h16m-120 1h8m48 0h24m24 0h16m-120 1h8m48 0h24m24 0h16m-128 1h8m80 0h24m-112 1h8m80 0h24m-112 1h8m80 0h24m-112 1h8m80 0h24m-112 1h8m80 0h24m-112 1h8m80 0h24m-112 1h8m80 0h24m-112 1h8m80 0h24m-120 1h8m-8 1h8m-8 1h8m-8 1h8m-8 1h8m-8 1h8m-8 1h8m-8 1h8m-8 1h8m-8 1h8m-8 1h8m-8 1h8m-8 1h8m-8 1h8m-8 1h8m-8 1h8m-8 1h8m-8 1h8m-8 1h8m-8 1h8m-8 1h8m-8 1h8m-8 1h8m-8 1h8m-8 1h8m-8 1h8m-8 1h8m-8 1h8m-8 1h8m-8 1h8m-8 1h8m-8 1h8m-8 1h8m-8 1h8m-8 1h8m-8 1h8m-8 1h8m-8 1h8m-8 1h8m-8 1h8m0 1h8m-8 1h8m-8 1h8m-8 1h8m-8 1h8m-8 1h8m-8 1h8m-8 1h8m-8 1h8m-8 1h8m-8 1h8m-8 1h8m-8 1h8m-8 1h8m-8 1h8m-8 1h8m0 1h8m-8 1h8m-8 1h8m-8 1h8m-8 1h8m-8 1h8m-8 1h8m-8 1h8m-8 1h8m-8 1h8m-8 1h8m-8 1h8m-8 1h8m-8 1h8m-8 1h8m-8 1h8m0 1h8m-8 1h8m-8 1h8m-8 1h8m-8 1h8m-8 1h8m-8 1h8m-8 1h8m0 1h8m-8 1h8m-8 1h8m-8 1h8m-8 1h8m-8 1h8m-8 1h8m-8 1h8m-8 1h8m-8 1h8m-8 1h8m-8 1h8m-8 1h8m-8 1h8m-8 1h8m-8 1h8m-8 1h8m-8 1h8m-8 1h8m-8 1h8m-8 1h8m-8 1h8m-8 1h8m-8 1h8m-16 1h8m-8 1h8m-8 1h8m-8 1h8m-8 1h8m-8 1h8m-8 1h8m-8 1h8"/><path stroke="#b46c00" d="M312 331h8m-8 1h8m-8 1h8m-8 1h8m-8 1h8m-8 1h8m-8 1h8m-8 1h8m0 1h8m-8 1h8m-8 1h8m-8 1h8m-8 1h8m-8 1h8m-8 1h8m-8 1h8m0 1h16m8 0h8m-32 1h16m8 0h8m-32 1h16m8 0h8m-32 1h16m8 0h8m-32 1h16m8 0h8m-32 1h16m8 0h8m-32 1h16m8 0h8m-32 1h16m8 0h8m-16 1h8m-8 1h8m-8 1h8m-8 1h8m-8 1h8m-8 1h8m-8 1h8m-8 1h8m0 1h8m-8 1h8m-8 1h8m-8 1h8m-8 1h8m-8 1h8m-8 1h8m-8 1h8m-64 81h8m-8 1h8m-8 1h8m-8 1h8m-8 1h8m-8 1h8m-8 1h8m-8 1h8m0 1h8m-8 1h8m-8 1h8m-8 1h8m-8 1h8m-8 1h8m-8 1h8m-8 1h8m-8 1h24m-24 1h24m-24 1h24m-24 1h24m-24 1h24m-24 1h24m-24 1h24m-24 1h24"/><path stroke="#9d5e00" d="M224 371h8m-8 1h8m-8 1h8m-8 1h8m-8 1h8m-8 1h8m-8 1h8m-8 1h8m-8 1h8m-8 1h8m-8 1h8m-8 1h8m-8 1h8m-8 1h8m-8 1h8m-8 1h8m-8 1h8m-8 1h8m-8 1h8m-8 1h8m-8 1h8m-8 1h8m-8 1h8m-8 1h8m-8 1h8m-8 1h8m-8 1h8m-8 1h8m-8 1h8m-8 1h8m-8 1h8m-8 1h8m-8 1h8m-8 1h8m-8 1h8m-8 1h8m-8 1h8m-8 1h8m-8 1h8m-8 1h8m0 1h8m-8 1h8m-8 1h8m-8 1h8m-8 1h8m-8 1h8m-8 1h8m-8 1h8"/><path stroke="#875100" d="M240 419h8m-8 1h8m-8 1h8m-8 1h8m-8 1h8m-8 1h8m-8 1h8m-8 1h8m0 1h8m-8 1h8m-8 1h8m-8 1h8m-8 1h8m-8 1h8m-8 1h8m-8 1h8m0 1h8m-8 1h8m-8 1h8m-8 1h8m-8 1h8m-8 1h8m-8 1h8m-8 1h8m0 1h8m-8 1h8m-8 1h8m-8 1h8m-8 1h8m-8 1h8m-8 1h8m-8 1h8m0 1h8m-8 1h8m-8 1h8m-8 1h8m-8 1h8m-8 1h8m-8 1h8m-8 1h8m0 1h8m-8 1h8m-8 1h8m-8 1h8m-8 1h8m-8 1h8m-8 1h8m-8 1h8m0 1h16m80 0h8m-104 1h16m80 0h8m-104 1h16m80 0h8m-104 1h16m80 0h8m-104 1h16m80 0h8m-104 1h16m80 0h8m-104 1h16m80 0h8m-104 1h16m80 0h8m-88 1h80m-80 1h80m-80 1h80m-80 1h80m-80 1h80m-80 1h80m-80 1h80m-80 1h80"/></svg>